<mxfile host="app.diagrams.net" modified="2021-06-08T18:20:07.961Z" agent="5.0 (Windows NT 10.0; Win64; x64) AppleWebKit/537.36 (KHTML, like Gecko) Chrome/91.0.4472.77 Safari/537.36" etag="VCPNfn_1_XhJSAOAofkp" version="14.7.6" type="github">
  <diagram id="VT28JeEWsvhcX08VA3G0" name="Page-1">
    <mxGraphModel dx="1221" dy="575" grid="1" gridSize="10" guides="1" tooltips="1" connect="1" arrows="1" fold="1" page="1" pageScale="1" pageWidth="827" pageHeight="1169" math="0" shadow="0">
      <root>
        <mxCell id="0" />
        <mxCell id="1" parent="0" />
        <mxCell id="UN70dyawH_DquIYdpCMh-5" style="edgeStyle=orthogonalEdgeStyle;rounded=0;orthogonalLoop=1;jettySize=auto;html=1;exitX=0.5;exitY=1;exitDx=0;exitDy=0;entryX=0.5;entryY=0;entryDx=0;entryDy=0;" parent="1" source="UN70dyawH_DquIYdpCMh-1" target="UN70dyawH_DquIYdpCMh-4" edge="1">
          <mxGeometry relative="1" as="geometry" />
        </mxCell>
        <mxCell id="UN70dyawH_DquIYdpCMh-1" value="App" style="rounded=1;whiteSpace=wrap;html=1;" parent="1" vertex="1">
          <mxGeometry x="350" y="20" width="120" height="60" as="geometry" />
        </mxCell>
        <mxCell id="UN70dyawH_DquIYdpCMh-7" style="edgeStyle=orthogonalEdgeStyle;rounded=0;orthogonalLoop=1;jettySize=auto;html=1;exitX=0.5;exitY=1;exitDx=0;exitDy=0;entryX=0.5;entryY=0;entryDx=0;entryDy=0;" parent="1" source="UN70dyawH_DquIYdpCMh-4" target="UN70dyawH_DquIYdpCMh-6" edge="1">
          <mxGeometry relative="1" as="geometry">
            <Array as="points">
              <mxPoint x="410" y="210" />
              <mxPoint x="275" y="210" />
            </Array>
          </mxGeometry>
        </mxCell>
        <mxCell id="UN70dyawH_DquIYdpCMh-9" style="edgeStyle=orthogonalEdgeStyle;rounded=0;orthogonalLoop=1;jettySize=auto;html=1;exitX=0.5;exitY=1;exitDx=0;exitDy=0;" parent="1" source="UN70dyawH_DquIYdpCMh-4" target="UN70dyawH_DquIYdpCMh-8" edge="1">
          <mxGeometry relative="1" as="geometry">
            <Array as="points">
              <mxPoint x="410" y="210" />
              <mxPoint x="600" y="210" />
            </Array>
          </mxGeometry>
        </mxCell>
        <mxCell id="UN70dyawH_DquIYdpCMh-33" style="edgeStyle=orthogonalEdgeStyle;rounded=0;orthogonalLoop=1;jettySize=auto;html=1;entryX=0.5;entryY=0;entryDx=0;entryDy=0;" parent="1" source="UN70dyawH_DquIYdpCMh-4" target="UN70dyawH_DquIYdpCMh-32" edge="1">
          <mxGeometry relative="1" as="geometry">
            <Array as="points">
              <mxPoint x="410" y="210" />
              <mxPoint x="90" y="210" />
            </Array>
          </mxGeometry>
        </mxCell>
        <mxCell id="UN70dyawH_DquIYdpCMh-4" value="Layout" style="rounded=1;whiteSpace=wrap;html=1;" parent="1" vertex="1">
          <mxGeometry x="350" y="120" width="120" height="60" as="geometry" />
        </mxCell>
        <mxCell id="UN70dyawH_DquIYdpCMh-11" style="edgeStyle=orthogonalEdgeStyle;rounded=0;orthogonalLoop=1;jettySize=auto;html=1;exitX=0.5;exitY=1;exitDx=0;exitDy=0;entryX=0.5;entryY=0;entryDx=0;entryDy=0;" parent="1" source="UN70dyawH_DquIYdpCMh-6" target="UN70dyawH_DquIYdpCMh-10" edge="1">
          <mxGeometry relative="1" as="geometry" />
        </mxCell>
        <mxCell id="UN70dyawH_DquIYdpCMh-6" value="Container" style="rounded=1;whiteSpace=wrap;html=1;" parent="1" vertex="1">
          <mxGeometry x="230" y="230" width="90" height="50" as="geometry" />
        </mxCell>
        <mxCell id="UN70dyawH_DquIYdpCMh-20" style="edgeStyle=orthogonalEdgeStyle;rounded=0;orthogonalLoop=1;jettySize=auto;html=1;entryX=0;entryY=0.5;entryDx=0;entryDy=0;" parent="1" source="UN70dyawH_DquIYdpCMh-8" target="UN70dyawH_DquIYdpCMh-17" edge="1">
          <mxGeometry relative="1" as="geometry" />
        </mxCell>
        <mxCell id="UN70dyawH_DquIYdpCMh-21" style="edgeStyle=orthogonalEdgeStyle;rounded=0;orthogonalLoop=1;jettySize=auto;html=1;entryX=0;entryY=0.5;entryDx=0;entryDy=0;" parent="1" source="UN70dyawH_DquIYdpCMh-8" target="UN70dyawH_DquIYdpCMh-18" edge="1">
          <mxGeometry relative="1" as="geometry" />
        </mxCell>
        <mxCell id="UN70dyawH_DquIYdpCMh-23" style="edgeStyle=orthogonalEdgeStyle;rounded=0;orthogonalLoop=1;jettySize=auto;html=1;entryX=0;entryY=0.5;entryDx=0;entryDy=0;" parent="1" source="UN70dyawH_DquIYdpCMh-8" target="UN70dyawH_DquIYdpCMh-19" edge="1">
          <mxGeometry relative="1" as="geometry" />
        </mxCell>
        <mxCell id="UN70dyawH_DquIYdpCMh-8" value="Navi&lt;br&gt;&amp;lt;Component&amp;gt;" style="rounded=1;whiteSpace=wrap;html=1;" parent="1" vertex="1">
          <mxGeometry x="550" y="225" width="100" height="55" as="geometry" />
        </mxCell>
        <mxCell id="UN70dyawH_DquIYdpCMh-14" style="edgeStyle=orthogonalEdgeStyle;rounded=0;orthogonalLoop=1;jettySize=auto;html=1;exitX=0.5;exitY=1;exitDx=0;exitDy=0;entryX=0.5;entryY=0;entryDx=0;entryDy=0;" parent="1" source="UN70dyawH_DquIYdpCMh-10" target="UN70dyawH_DquIYdpCMh-12" edge="1">
          <mxGeometry relative="1" as="geometry" />
        </mxCell>
        <mxCell id="UN70dyawH_DquIYdpCMh-16" style="edgeStyle=orthogonalEdgeStyle;rounded=0;orthogonalLoop=1;jettySize=auto;html=1;exitX=0.5;exitY=1;exitDx=0;exitDy=0;entryX=0.5;entryY=0;entryDx=0;entryDy=0;" parent="1" source="UN70dyawH_DquIYdpCMh-10" target="UN70dyawH_DquIYdpCMh-15" edge="1">
          <mxGeometry relative="1" as="geometry" />
        </mxCell>
        <mxCell id="UN70dyawH_DquIYdpCMh-10" value="Dashboard&lt;br&gt;&amp;lt;Component&amp;gt;" style="rounded=1;whiteSpace=wrap;html=1;" parent="1" vertex="1">
          <mxGeometry x="215" y="330" width="120" height="60" as="geometry" />
        </mxCell>
        <mxCell id="UN70dyawH_DquIYdpCMh-12" value="Sidebar&lt;br&gt;&amp;lt;Component&amp;gt;" style="rounded=1;whiteSpace=wrap;html=1;" parent="1" vertex="1">
          <mxGeometry x="70" y="430" width="110" height="57.5" as="geometry" />
        </mxCell>
        <mxCell id="UN70dyawH_DquIYdpCMh-28" style="edgeStyle=orthogonalEdgeStyle;rounded=0;orthogonalLoop=1;jettySize=auto;html=1;" parent="1" source="UN70dyawH_DquIYdpCMh-15" target="UN70dyawH_DquIYdpCMh-24" edge="1">
          <mxGeometry relative="1" as="geometry">
            <Array as="points">
              <mxPoint x="354" y="530" />
              <mxPoint x="170" y="530" />
            </Array>
          </mxGeometry>
        </mxCell>
        <mxCell id="UN70dyawH_DquIYdpCMh-29" style="edgeStyle=orthogonalEdgeStyle;rounded=0;orthogonalLoop=1;jettySize=auto;html=1;" parent="1" source="UN70dyawH_DquIYdpCMh-15" target="UN70dyawH_DquIYdpCMh-25" edge="1">
          <mxGeometry relative="1" as="geometry">
            <Array as="points">
              <mxPoint x="354" y="530" />
              <mxPoint x="300" y="530" />
            </Array>
          </mxGeometry>
        </mxCell>
        <mxCell id="UN70dyawH_DquIYdpCMh-30" style="edgeStyle=orthogonalEdgeStyle;rounded=0;orthogonalLoop=1;jettySize=auto;html=1;entryX=0.5;entryY=0;entryDx=0;entryDy=0;" parent="1" source="UN70dyawH_DquIYdpCMh-15" target="UN70dyawH_DquIYdpCMh-26" edge="1">
          <mxGeometry relative="1" as="geometry">
            <Array as="points">
              <mxPoint x="354" y="530" />
              <mxPoint x="430" y="530" />
            </Array>
          </mxGeometry>
        </mxCell>
        <mxCell id="UN70dyawH_DquIYdpCMh-31" style="edgeStyle=orthogonalEdgeStyle;rounded=0;orthogonalLoop=1;jettySize=auto;html=1;entryX=0.5;entryY=0;entryDx=0;entryDy=0;" parent="1" source="UN70dyawH_DquIYdpCMh-15" target="UN70dyawH_DquIYdpCMh-27" edge="1">
          <mxGeometry relative="1" as="geometry">
            <Array as="points">
              <mxPoint x="354" y="530" />
              <mxPoint x="560" y="530" />
            </Array>
          </mxGeometry>
        </mxCell>
        <mxCell id="UN70dyawH_DquIYdpCMh-15" value="Section&lt;br&gt;&amp;lt;Component&amp;gt;" style="rounded=1;whiteSpace=wrap;html=1;" parent="1" vertex="1">
          <mxGeometry x="294" y="430" width="120" height="60" as="geometry" />
        </mxCell>
        <mxCell id="UN70dyawH_DquIYdpCMh-17" value="SıgIn&lt;br&gt;&amp;lt;Component&amp;gt;" style="rounded=1;whiteSpace=wrap;html=1;" parent="1" vertex="1">
          <mxGeometry x="700" y="330" width="120" height="60" as="geometry" />
        </mxCell>
        <mxCell id="UN70dyawH_DquIYdpCMh-18" value="SıgnUp&lt;br&gt;&amp;lt;Component&amp;gt;" style="rounded=1;whiteSpace=wrap;html=1;" parent="1" vertex="1">
          <mxGeometry x="700" y="420" width="120" height="60" as="geometry" />
        </mxCell>
        <mxCell id="UN70dyawH_DquIYdpCMh-19" value="JobAdvert&lt;br&gt;&amp;lt;Component&amp;gt;" style="rounded=1;whiteSpace=wrap;html=1;" parent="1" vertex="1">
          <mxGeometry x="700" y="510" width="120" height="60" as="geometry" />
        </mxCell>
        <mxCell id="UN70dyawH_DquIYdpCMh-24" value="Candidate&lt;br&gt;&amp;lt;Component&amp;gt;" style="rounded=1;whiteSpace=wrap;html=1;" parent="1" vertex="1">
          <mxGeometry x="110" y="600" width="120" height="60" as="geometry" />
        </mxCell>
        <mxCell id="UN70dyawH_DquIYdpCMh-25" value="Employee&lt;br&gt;&amp;lt;Component&amp;gt;" style="rounded=1;whiteSpace=wrap;html=1;" parent="1" vertex="1">
          <mxGeometry x="240" y="600" width="120" height="60" as="geometry" />
        </mxCell>
        <mxCell id="UN70dyawH_DquIYdpCMh-26" value="Company&lt;br&gt;&amp;lt;Component&amp;gt;" style="rounded=1;whiteSpace=wrap;html=1;" parent="1" vertex="1">
          <mxGeometry x="370" y="600" width="120" height="60" as="geometry" />
        </mxCell>
        <mxCell id="UN70dyawH_DquIYdpCMh-27" value="Job&lt;br&gt;&amp;lt;Component&amp;gt;" style="rounded=1;whiteSpace=wrap;html=1;" parent="1" vertex="1">
          <mxGeometry x="500" y="600" width="120" height="60" as="geometry" />
        </mxCell>
        <mxCell id="UN70dyawH_DquIYdpCMh-32" value="Footer&lt;br&gt;&amp;lt;Component&amp;gt;" style="rounded=1;whiteSpace=wrap;html=1;" parent="1" vertex="1">
          <mxGeometry x="40" y="230" width="100" height="50" as="geometry" />
        </mxCell>
      </root>
    </mxGraphModel>
  </diagram>
</mxfile>
